<?xml version="1.0" encoding="utf-8"?>
<!-- Generator: Adobe Illustrator 23.0.3, SVG Export Plug-In . SVG Version: 6.00 Build 0)  -->
<svg version="1.1" id="Layer_1" xmlns="http://www.w3.org/2000/svg" xmlns:xlink="http://www.w3.org/1999/xlink" x="0px" y="0px"
	 viewBox="0 0 263 198.8" style="enable-background:new 0 0 263 198.8;" xml:space="preserve">
<style type="text/css">
	.st0{fill:#DA3721;}
	.st1{fill:#FFFFFF;}
</style>
<title>zipview_logo</title>
<g>
	<path class="st0" d="M230.1,194.6c-65.6,6-131.4,6-197,0c-16.9-1.5-30.1-15.2-31-32.1c-2.4-42.1-2.4-84.3,0-126.4
		c1-16.9,14.2-30.6,31-32.1c65.6-6,131.4-6,197,0c16.9,1.5,30.1,15.2,31,32.1c2.4,42.1,2.4,84.3,0,126.4
		C260.1,179.4,246.9,193.1,230.1,194.6z"/>
	<g>
		<path class="st1" d="M213.1,74.6c0-8.6-6.8-15.6-15.3-16l0,0L66,58.9c0,0,0,0,0,0l-0.8,0l0,0C56.7,59.3,50,66.4,50,75l0.1,54.2
			c0,8.4,9.2,13.6,16.4,9.2l8.1-4.9l-0.1-28.2c0-1.5,1.2-2.8,2.8-2.8l13.6,0c1.5,0,2.8,1.2,2.8,2.8l0,16.6l37.8-23l65.3,39.3
			c7.2,4.3,16.4-0.9,16.3-9.3L213.1,74.6z"/>
	</g>
</g>
</svg>
